<svg width="18" height="18" viewBox="0 0 18 18" fill="none" xmlns="http://www.w3.org/2000/svg">
<g clip-path="url(#clip0_44_2)">
<path d="M11.3555 1.96875L8.2969 2.25L9.73831 2.77734L9.35159 3.16406L10.3008 5.73047L6.53909 8.15625L6.75002 9.77344V9.80859L7.34768 9.42188L7.1719 8.68359L11.2852 6.22266L11.5664 5.94141L11.2149 3.69141L12.375 3.48047L13.3946 2.77734L13.5703 2.42578H12.8321L11.3555 1.96875ZM11.2149 2.21484L12.6914 2.63672L11.1446 2.70703L12.5156 2.95312L11.3906 3.16406H9.94924L10.336 2.70703L9.35159 2.39062L11.2149 2.21484ZM7.90666 2.48309L9.37971 5.27695L6.93987 7.11211L9.77698 5.41055L8.80666 3.16582L9.20745 2.88738L7.90666 2.48309ZM12.811 3.89883L11.911 4.725L12.2449 6.09961L11.1656 7.95234L12.2274 9.65039L11.5805 8.01211L12.8813 6.20859L12.3399 4.82695L12.811 3.89883ZM11.4961 6.63047L7.81526 8.85938L7.94182 9.56602L5.33674 11.4223L5.36487 10.7367L6.12776 10.118L6.04338 9.34453L3.96565 11.5629L4.70745 13.2469L8.09651 12.5227L10.3395 13.7777L7.92776 13.0465L4.23987 13.7777L3.61409 11.9777L3.94104 14.277L3.60706 15.0398L5.24182 15.3352L7.24221 14.7727L9.56604 16.0277L11.243 14.2137L10.561 11.6613L12.15 10.3887L10.3043 7.76953L11.4961 6.63047ZM12.8953 6.84492L12.3821 8.1L13.711 10.7016L12.6633 13.7742L14.1574 15.3457L14.3895 14.9484L13.8481 14.4211L14.1926 13.2469V10.6207L12.8356 8.04727L12.8953 6.84492ZM12.9727 10.6594L11.5207 11.8406L11.9004 13.7426L12.9727 10.6594ZM12.2098 14.3719L10.2762 16.0312L11.2676 16.0207L13.4332 15.3738L12.2098 14.3719Z" fill="white"/>
</g>
<defs>
<clipPath id="clip0_44_2">
<rect width="18" height="18" fill="white"/>
</clipPath>
</defs>
</svg>
